<svg style="overflow: hidden; position: relative; top: -0.900024px;" xmlns="http://www.w3.org/2000/svg" width="210" version="1.1" height="90"><desc>Created with Raphaël 2.1.2</desc><defs></defs><rect stroke="#000" fill="none" ry="0" rx="0" r="0" height="20" width="50" y="5" x="80"></rect><text fill="#000000" stroke="none" font="15px Arial" text-anchor="middle" y="15" x="105" style="text-anchor: middle; font: 15px Arial;"><tspan dy="5">14</tspan></text><rect stroke="#000" fill="none" ry="0" rx="0" r="0" height="20" width="50" y="25" x="55"></rect><text fill="#808080" stroke="none" font="15px Arial" text-anchor="middle" y="35" x="80" style="text-anchor: middle; font: 15px Arial;"><tspan dy="5">8</tspan></text><rect stroke="#000" fill="none" ry="0" rx="0" r="0" height="20" width="50" y="25" x="105"></rect><text fill="#808080" stroke="none" font="15px Arial" text-anchor="middle" y="35" x="130" style="text-anchor: middle; font: 15px Arial;"><tspan dy="5">6</tspan></text><rect stroke="#000" fill="none" ry="0" rx="0" r="0" height="20" width="50" y="45" x="30"></rect><text fill="#000000" stroke="none" font="15px Arial" text-anchor="middle" y="55" x="55" style="text-anchor: middle; font: 15px Arial;"><tspan dy="5">5</tspan></text><rect stroke="#000" fill="none" ry="0" rx="0" r="0" height="20" width="50" y="45" x="80"></rect><text fill="#000000" stroke="none" font="15px Arial" text-anchor="middle" y="55" x="105" style="text-anchor: middle; font: 15px Arial;"><tspan dy="5">3</tspan></text><rect stroke="#000" fill="none" ry="0" rx="0" r="0" height="20" width="50" y="45" x="130"></rect><text fill="#808080" stroke="none" font="15px Arial" text-anchor="middle" y="55" x="155" style="text-anchor: middle; font: 15px Arial;"><tspan dy="5">3</tspan></text><rect stroke="#000" fill="none" ry="0" rx="0" r="0" height="20" width="50" y="65" x="5"></rect><text fill="#808080" stroke="none" font="15px Arial" text-anchor="middle" y="75" x="30" style="text-anchor: middle; font: 15px Arial;"><tspan dy="5">4</tspan></text><rect stroke="#000" fill="none" ry="0" rx="0" r="0" height="20" width="50" y="65" x="55"></rect><text fill="#808080" stroke="none" font="15px Arial" text-anchor="middle" y="75" x="80" style="text-anchor: middle; font: 15px Arial;"><tspan dy="5">1</tspan></text><rect stroke="#000" fill="none" ry="0" rx="0" r="0" height="20" width="50" y="65" x="105"></rect><text fill="#808080" stroke="none" font="15px Arial" text-anchor="middle" y="75" x="130" style="text-anchor: middle; font: 15px Arial;"><tspan dy="5">2</tspan></text><rect stroke="#000" fill="none" ry="0" rx="0" r="0" height="20" width="50" y="65" x="155"></rect><text fill="#000000" stroke="none" font="15px Arial" text-anchor="middle" y="75" x="180" style="text-anchor: middle; font: 15px Arial;"><tspan dy="5">1</tspan></text></svg>